<svg xmlns="http://www.w3.org/2000/svg" viewBox="0 0 32 32"><defs><style>.a{fill:#fff;}.b{fill:#000842;}.c{fill:#f6ae2d;stroke:#000842;stroke-miterlimit:10;}</style></defs><rect class="a" width="32" height="32"/><path class="b" d="M21.64,4.88H19.29V2.54A.57.57,0,0,0,18.7,2h-2a.57.57,0,0,0-.59.54V4.88H9.86V2.54A.57.57,0,0,0,9.27,2h-2a.57.57,0,0,0-.59.54V4.88H4.36A2.26,2.26,0,0,0,2,7V22.84A2.27,2.27,0,0,0,4.36,25H21.64A2.27,2.27,0,0,0,24,22.84V7A2.26,2.26,0,0,0,21.64,4.88Zm-.29,18H4.65a.28.28,0,0,1-.29-.27V9.19H21.64V22.57A.28.28,0,0,1,21.35,22.84Z"/><path class="c" d="M6,16.68a8.35,8.35,0,0,1,.47-2.85,4.75,4.75,0,0,1,1.4-2.05A3.14,3.14,0,0,1,10,11a3.45,3.45,0,0,1,3,1.46,6.6,6.6,0,0,1,1,3.88,8.91,8.91,0,0,1-.24,2.11,6.89,6.89,0,0,1-.7,1.8,3.72,3.72,0,0,1-1.21,1.28,3.14,3.14,0,0,1-1.69.47,3.64,3.64,0,0,1-3.07-1.44A6.23,6.23,0,0,1,6,16.68Zm4-2.31c-.31,0-.52.21-.64.61a5.71,5.71,0,0,0-.13,1.51c0,1.37.25,2.05.75,2.05a.64.64,0,0,0,.31-.07.69.69,0,0,0,.22-.23,1.69,1.69,0,0,0,.13-.31,1.41,1.41,0,0,0,.08-.39c0-.16,0-.29,0-.4s0-.24,0-.38v-.67c0-.1,0-.24,0-.43a1.87,1.87,0,0,0-.07-.47,3.43,3.43,0,0,0-.13-.38.67.67,0,0,0-.22-.31A.54.54,0,0,0,10,14.37ZM14,30,16.75,8h4.06L18.06,30Zm7-6.32a8.35,8.35,0,0,1,.47-2.85,4.75,4.75,0,0,1,1.4-2A3.14,3.14,0,0,1,25,18a3.45,3.45,0,0,1,3,1.46,6.6,6.6,0,0,1,1,3.88,9.06,9.06,0,0,1-.24,2.12,6.61,6.61,0,0,1-.7,1.79,3.63,3.63,0,0,1-1.21,1.28,3.13,3.13,0,0,1-1.68.47,3.65,3.65,0,0,1-3.08-1.44A6.23,6.23,0,0,1,21,23.68Zm4-2.31c-.3,0-.51.22-.64.61a5.71,5.71,0,0,0-.13,1.51c0,1.37.25,2.05.75,2.05a.64.64,0,0,0,.31-.07.69.69,0,0,0,.22-.23,1.69,1.69,0,0,0,.13-.31,1.41,1.41,0,0,0,.08-.39c0-.15,0-.29,0-.4s0-.24,0-.38v-.67c0-.09,0-.24,0-.43a1.87,1.87,0,0,0-.07-.47,3.43,3.43,0,0,0-.13-.38.75.75,0,0,0-.22-.31A.54.54,0,0,0,25,21.37Z"/></svg>