<svg xmlns="http://www.w3.org/2000/svg" viewBox="0 0 32 32"><defs><style>.a{fill:#fff;}.b{fill:#f6ae2d;isolation:isolate;}.c{fill:#000842;}</style></defs><rect class="a" width="32" height="32"/><path class="b" d="M2.22,12V27.86a2,2,0,0,0,2,2H28a2,2,0,0,0,2-2V12Z"/><path class="c" d="M20.91,16.64a3.29,3.29,0,0,0-4.34.3l-.46.45-.46-.45a3.29,3.29,0,0,0-4.34-.3A3.08,3.08,0,0,0,10.83,21a3.33,3.33,0,0,0,.25.28l4.5,4.43a.77.77,0,0,0,1.06,0l4.5-4.43a3.08,3.08,0,0,0,0-4.35A2.16,2.16,0,0,0,20.91,16.64ZM26.48,3.43A2,2,0,0,0,24.6,2.07H17.1V10H29.92A.24.24,0,0,1,30,9.93ZM15.12,2.07H7.62A2,2,0,0,0,5.74,3.43L2.25,9.93l0,.08H15.12Z"/></svg>